<?xml version="1.0" encoding="utf-8"?>
<!-- Generator: Adobe Illustrator 19.0.0, SVG Export Plug-In . SVG Version: 6.00 Build 0)  -->
<svg version="1.1" id="Слой_1" xmlns="http://www.w3.org/2000/svg" xmlns:xlink="http://www.w3.org/1999/xlink" x="0px" y="0px"
	 viewBox="0 0 16 16" style="enable-background:new 0 0 16 16;" xml:space="preserve">
<path d="M3.5,2.5h10c1.1,0,2,0.9,2,2v7c0,1.1-0.9,2-2,2h-10c-1.1,0-2-0.9-2-2v-7C1.5,3.4,2.4,2.5,3.5,2.5z"/>
<path fill="#fff" d="M5.1,8.8l0.7,0.7l-2,2l-0.7-0.7L5.1,8.8z"/>
<path fill="#fff" d="M11.1,9.5l0.7-0.7l2,2l-0.7,0.7L11.1,9.5z"/>
<path fill="#fff" d="M3.2,5.5l0.6-0.8l5,4L8.2,9.5L3.2,5.5z"/>
<path fill="#fff" d="M13.7,5.8L13,5L7.7,9.2l0.8,0.7L13.7,5.8z"/>
</svg>
