<?xml version="1.0" encoding="utf-8"?><svg viewBox="0 0 512 513.3" xmlns="http://www.w3.org/2000/svg" xmlns:xlink="http://www.w3.org/1999/xlink"><style>:root>svg{display:none}:root>svg:target{display:block}</style><svg viewBox="40 -35 110 100" id="ic_buy" xmlns="http://www.w3.org/2000/svg"><path d="M94.5-29l-48 19v48l48 22 48-22v-48l-48-19zm0 6l38.9 15.4-15.3 6.5-37.5-16.4L94.5-23zm-3 75.6l-39-18.2V-2.7l39 17.4v37.9zM55.6-7.6l17.2-6.8L110 2.4 94.5 9 55.6-7.6zm80.9 42l-39 18.2V14.7l39-17.4v37.1zM79.1 32l4.8 3V24.7h2.6l-5-6.7-6 3.7 3.6 1V32zm-21-10l4.8 3V14.7h2.6l-5-6.7-6 3.7 3.6 1V22zm73.8-17.6V1.6l-15 7v2.8l15-7zm0 1.2l-15 7v2.8l15-7V5.6zm-14.7 15.9v.9l1.6-.7h.2l.1.1.1 4.9.4-.2.4-.2v-4.9c0-.1 0-.1.1-.2 0-.1.1-.1.2-.2l1.6-.7v-.9l-4.7 2.1zm-15.3 11c.1-1 .8-2.1 1.7-2.7.5-.4.9-1 1-1.6.1-.6-.2-1.1-.7-1.1-.5-.1-1.1.3-1.5.8-.4.6-.6 1.2-.4 1.7.3.8.1 1.9-.7 2.9h.6zM129 16c-.2-.1-.5 0-.7.2-.2.3-.2.6 0 .7l1.9 1.5-1.8 3.3c-.2.3-.1.6.1.6h.3c.1-.1.3-.2.4-.3l1.7-3.1 1.8 1.4c.1.1.2.1.4 0 .1 0 .2-.1.3-.2.2-.3.2-.6 0-.7l-1.9-1.5 1.8-3.3c.2-.3.1-.6-.1-.6-.2-.1-.5.1-.7.4l-1.7 3.1L129 16zm-14.1 11.8c.6.3 1.6.2 2.3-.2l.1-.1v-1l-.1.1c-.5.3-1.3.4-1.7.2-.4-.2-.6-.7-.6-1.2l-.1-3-.4.2-.4.2.1 3c-.1.9.2 1.5.8 1.8zm12.1-6.4c-.5.9-1.3 1.5-2 1.7-.8.2-1.4-.2-1.6-.9l3.6-1.7v-1l-3.6 1.7c.1-.9.7-1.8 1.5-2.3s1.6-.6 2.1-.2l.3-.5.3-.5c-.8-.6-2.1-.3-3.2.6-1.1 1-1.9 2.5-1.8 3.7 0 1.3.8 2 2 2 1.1-.1 2.4-1 3.2-2.4l-.3-.2h-.5zm-17.2 9.5c1.1-.1 2.4-1 3.2-2.4l-.3-.2-.3-.2c-.5.9-1.3 1.5-2 1.7-.8.2-1.4-.2-1.6-.9l3.5-1.6v-1l-3.5 1.6c.1-.9.7-1.8 1.5-2.3s1.6-.6 2.1-.2l.3-.5.3-.5c-.8-.6-2.1-.3-3.2.6-1.1 1-1.9 2.5-1.8 3.7-.1 1.5.7 2.3 1.8 2.2zm-9.4 5.1c.5 0 1.1-.5 1.4-1.1.6-1 1.6-1.7 2.4-1.7v-.6c-.8.8-1.9 1-2.5.6-.4-.3-.9-.2-1.5.3-.5.4-.8 1.1-.8 1.7.1.5.5.8 1 .8zm3.6-6c.8.2 1.1 1.1.8 2.2-.2.6 0 1.2.4 1.3.4.2 1-.1 1.5-.6s.7-1.2.6-1.7-.5-.8-1.1-.6c-.9.3-1.6-.2-1.8-1.1-.1.2-.3.4-.4.5z"/></svg><svg version="1.1" id="ic_buy_open" x="0" y="0" viewBox="0 0 130 100" xml:space="preserve" xmlns="http://www.w3.org/2000/svg"><style>.bst0,.bst1{fill-rule:evenodd;clip-rule:evenodd;fill:#11abde}.bst1{fill:#fff}</style><g id="bXMLID_132_"><path id="bXMLID_133_" class="bst0" d="M49.1 67l4.8 3V59.7h2.6l-5-6.7-6 3.7 3.6 1V67zm-21-10l4.8 3V49.7h2.6l-5-6.7-6 3.7 3.6 1V57zM64.5 6l-48 19v48l48 22 48-22V25l-48-19zm-3 81.6l-39-18.2V32.3l39 17.4v37.9zM25.6 27.4L64.5 12l38.9 15.4L64.5 44 25.6 27.4zm80.9 42l-39 18.2V49.7l39-17.4v37.1zm-3-30.7v-2.8l-15 7.1v2.8l15-7.1zm-15 11.2l15-7.1v-2.9l-15 7.1v2.9zm8.5 6.5c-.5.9-1.3 1.5-2 1.7-.8.2-1.4-.2-1.6-.9l3.6-1.7v-1l-3.6 1.7c.1-.9.7-1.8 1.5-2.3.8-.5 1.6-.6 2.1-.2l.3-.5.3-.5c-.8-.6-2.1-.3-3.2.6-1.1 1-1.9 2.5-1.8 3.7 0 1.3.8 2 2 2 1.1-.1 2.4-1 3.2-2.4l-.3-.2H97zm4.4-3.5l1.8-3.3c.2-.3.1-.6-.1-.6-.2-.1-.5.1-.7.4l-1.7 3.1L99 51c-.2-.1-.5 0-.7.2-.2.3-.2.6 0 .7l1.9 1.5-1.8 3.3c-.2.3-.1.6.1.6h.3c.1-.1.3-.2.4-.3l1.7-3.1 1.8 1.4c.1.1.2.1.4 0 .1 0 .2-.1.3-.2.2-.3.2-.6 0-.7l-2-1.5zM74 65c.8.2 1.1 1.1.8 2.2-.2.6 0 1.2.4 1.3.4.2 1-.1 1.5-.6s.7-1.2.6-1.7c-.1-.5-.5-.8-1.1-.6-.9.3-1.6-.2-1.8-1.1-.1.2-.3.4-.4.5zm-2.1 2.5c.1-1 .8-2.1 1.7-2.7.5-.4.9-1 1-1.6.1-.6-.2-1.1-.7-1.1-.5-.1-1.1.3-1.5.8-.4.6-.6 1.2-.4 1.7.3.8.1 1.9-.7 2.9h.6zM70.4 71c.5 0 1.1-.5 1.4-1.1.6-1 1.6-1.7 2.4-1.7v-.6c-.8.8-1.9 1-2.5.6-.4-.3-.9-.2-1.5.3-.5.4-.8 1.1-.8 1.7.1.5.5.8 1 .8zm14.5-8.2c.6.3 1.6.2 2.3-.2l.1-.1v-1l-.1.1c-.5.3-1.3.4-1.7.2-.4-.2-.6-.7-.6-1.2l-.1-3-.4.2-.4.2.1 3c-.1.9.2 1.5.8 1.8zm4-6.1h.2l.1.1.1 4.9.4-.2.4-.2-.1-4.9c0-.1 0-.1.1-.2 0-.1.1-.1.2-.2l1.6-.7v-.9l-4.6 2.1v.9l1.6-.7zm-9.1 9.2c1.1-.1 2.4-1 3.2-2.4l-.3-.2-.3-.2c-.5.9-1.3 1.5-2 1.7-.8.2-1.4-.2-1.6-.9l3.5-1.6v-1l-3.5 1.6c.1-.9.7-1.8 1.5-2.3.8-.5 1.6-.6 2.1-.2l.3-.5.3-.5c-.8-.6-2.1-.3-3.2.6-1.1 1-1.9 2.5-1.8 3.7-.1 1.5.7 2.3 1.8 2.2z"/></g><g id="bXMLID_37_"><path id="bXMLID_38_" class="bst0" d="M50.1 54.2L12.5 37l9-9-5-3-12 14 48 22 12-14-6-3-8.4 10.2zM112.5 25l-5 3 9 9-37.6 17.2L70.5 44l-6 3 12 14 48-22-12-14z"/></g><g id="bXMLID_29_"><path id="bXMLID_34_" class="bst1" d="M11.5 37s38.5 18 38 18 8-9 8-9l-39-16-7 7zm99-7l-39 16s8.5 9 8 9 38-18 38-18l-7-7z"/></g></svg><svg viewBox="0 0 456.03 434.69" id="ic_cart" xmlns="http://www.w3.org/2000/svg"><path d="M345.6 328.19a53.25 53.25 0 1 0 53.25 53.25c-.51-29.18-24.07-53.25-53.25-53.25zM439.3 74.24c-1 0-2.56-.51-4.1-.51H112.64l-5.12-34.31A45.85 45.85 0 0 0 62 0H20.48a20.5 20.5 0 0 0 0 41H62a5.44 5.44 0 0 1 5.12 4.61l31.7 216.02a56.12 56.12 0 0 0 55.29 47.62h213c26.63 0 49.67-18.95 55.3-45.06l33.28-166.4a20.24 20.24 0 0 0-16.39-23.55zM215 378.88c-1-28.16-24.58-50.69-52.74-50.69a53.56 53.56 0 0 0-51.2 55.3 52.49 52.49 0 0 0 52.23 50.69h1c29.25-1.54 52.29-26.12 50.71-55.3z"/></svg><svg viewBox="228 -229 512 512" id="ic_copy" xmlns="http://www.w3.org/2000/svg"><path d="M444.7 187c-50 0-90.7-40.7-90.7-90.7v-218.7h-37.3c-32.4 0-58.7 26.3-58.7 58.7v288c0 32.4 26.3 58.7 58.7 58.7h243.7c32.4 0 58.7-26.3 58.7-58.7V187H444.7z"/><path d="M704.3-170.3c0-32.4-26.3-58.7-58.7-58.7h-201c-32.4 0-58.7 26.3-58.7 58.7V96.3c0 32.4 26.3 58.7 58.7 58.7h201c32.4 0 58.7-26.3 58.7-58.7v-266.6z"/></svg><svg viewBox="0 0 170 97" id="ic_delivery" xmlns="http://www.w3.org/2000/svg"><path d="M165.83 85.61h-9.32a13.9 13.9 0 0 1-27.34 0h-50a13.9 13.9 0 0 1-27.34 0h-12.7A4.28 4.28 0 0 1 35 81.26V66.09H18.71a4.35 4.35 0 0 1 0-8.7h20.45a4.27 4.27 0 0 1 4.17 4.35v15.2h8.25a3.47 3.47 0 0 1 .9.11 13.79 13.79 0 0 1 26-.08 3 3 0 0 1 .52 0h39.3V8.7h-75v15.17a4.27 4.27 0 0 1-4.17 4.35H18.71a4.36 4.36 0 0 1 0-8.71H35V4.35A4.28 4.28 0 0 1 39.13 0h83.33a4.28 4.28 0 0 1 4.17 4.35v9.87h17.49a24.16 24.16 0 0 1 18.4 8c4.87 5.52 7.48 13.42 7.48 22.82v36.22a4.28 4.28 0 0 1-4.17 4.35zM65.49 76.5a5.92 5.92 0 1 0 5.67 5.92 5.8 5.8 0 0 0-5.67-5.92zm77.35 11.83a5.92 5.92 0 1 0-5.67-5.91 5.85 5.85 0 0 0 5.67 5.91zm18.81-43.2c0-13.9-6.54-22.21-17.49-22.21h-17.49v54h3.19a13.78 13.78 0 0 1 25.95 0h5.84zM72.2 35a4.5 4.5 0 0 1 0-6.17 4.06 4.06 0 0 1 5.91 0l10.23 10.71c.07.1.18.18.25.29s.07.1.1.18a.59.59 0 0 1 .14.18l.1.21c0 .08.07.11.11.19l.1.21c0 .08 0 .11.07.19a1.72 1.72 0 0 1 .07.21s0 .11.07.18 0 .15 0 .22v.47a.4.4 0 0 1 0 .18 3.24 3.24 0 0 1 0 .88v.65a.45.45 0 0 1 0 .22s0 .11-.07.18 0 .14-.07.22 0 .1-.07.18l-.1.21c0 .08-.07.11-.11.19l-.1.21a.77.77 0 0 0-.14.19c0 .07-.07.1-.1.18s-.18.18-.25.29L77.59 57.13a4.13 4.13 0 0 1-3 1.27 4.08 4.08 0 0 1-3-1.27 4.47 4.47 0 0 1 0-6.16l3.58-4h-71a4.35 4.35 0 0 1 0-8.7H75.3z" fill-rule="evenodd"/></svg><svg viewBox="0 0 19 24" id="ic_garanti" xmlns="http://www.w3.org/2000/svg"><path d="M17.5 3.1c-2 0-5.6-.4-8-3.1a10.78 10.78 0 0 1-8 3.1A10.07 10.07 0 0 1 0 3v10.5C0 19.7 9.5 24 9.5 24S19 19.7 19 13.5V3a10.07 10.07 0 0 1-1.5.1zm.4 10.4c0 5.5-8.4 9.3-8.4 9.3S1.1 19 1.1 13.5V4.2a7.31 7.31 0 0 0 1.3.1 9.83 9.83 0 0 0 7.1-2.7 9.42 9.42 0 0 0 7.1 2.7 7.31 7.31 0 0 0 1.3-.1z"/></svg><svg viewBox="0 0 19 24" id="ic_garanti_active" xmlns="http://www.w3.org/2000/svg"><path fill-rule="evenodd" d="M17.5 3.1c-2 0-5.6-.4-8-3.1-2.5 2.7-6 3.1-8 3.1C.6 3.1 0 3 0 3v10.5C0 19.7 9.5 24 9.5 24S19 19.7 19 13.5V3s-.6.1-1.5.1z"/></svg><svg viewBox="201 -206 512 512" id="ic_help" xmlns="http://www.w3.org/2000/svg"><path d="M696.3 188.8c11.1-23.4 16.7-48.6 16.7-74.8 0-93.6-74.3-170.3-167.3-174.8C524.7-136.3 455.8-189 377-189c-97 0-176 78.5-176 175 0 26.2 5.6 51.4 16.7 74.8L201.3 143c-2.1 10.5 7.1 19.7 17.6 17.7l83.3-16.5c20.9 9.9 43.1 15.4 66.2 16.5 29.1 104.9 146.2 157.6 243.4 111.5 91.2 18 84.1 16.7 86.2 16.7 9.5 0 16.6-8.7 14.7-17.9l-16.4-82.2zm-385.2-73.6c-3-1.5-6.4-2-9.7-1.4l-66.2 13.1 13-65.2c.7-3.3.2-6.8-1.4-9.8C236.3 31.4 231 9.2 231-14c0-80 65.5-145 146-145 62.9 0 118.3 40.9 137.7 99.4C423-47.9 353.9 34.9 362.8 130.3c-18.1-1.8-35.4-6.8-51.7-15.1zm354.7 74.5l13 65.2-66.2-13.1c-3.3-.7-6.7-.2-9.7 1.4-20.5 10.5-42.7 15.8-65.9 15.8-80 0-145-65-145-145S457-31 537-31c80.5 0 146 65 146 145 0 23.2-5.3 45.4-15.8 65.9-1.5 3-2 6.4-1.4 9.8z"/></svg><svg viewBox="0 0 22.7 19.7" id="ic_home" xmlns="http://www.w3.org/2000/svg"><path d="M.6 10.1L0 9.3 11.2.1l.6.8z" fill-rule="evenodd"/><path d="M22 10l.7-.8L11.3 0l-.7.8zM2.8 9.7h1v10h-1zM18.8 9.7h1v10h-1zM3.8 19.7v-1h6v1zM8.8 12.7v-1h5v1zM12.8 19.7v-1h6v1zM12.8 12.7h1v6h-1zM8.8 12.7h1v6h-1z" fill-rule="evenodd"/></svg><svg viewBox="0 0 12 15" id="ic_location" xmlns="http://www.w3.org/2000/svg"><path d="M6 0a6 6 0 0 0-6 6c0 3.3 6 9 6 9s6-5.7 6-9a6 6 0 0 0-6-6zm0 9.7a4 4 0 1 1 4-4 4 4 0 0 1-4 4z" fill-rule="evenodd"/></svg><svg viewBox="0 0 17.5 17.5" id="ic_messenger1" xmlns="http://www.w3.org/2000/svg"><path d="M14.9 2.6a8.69 8.69 0 0 1 1.9 2.8 9.28 9.28 0 0 1 .7 3.3 8 8 0 0 1-1.2 4.3 9.79 9.79 0 0 1-3.2 3.2 8.31 8.31 0 0 1-4.4 1.2 8.11 8.11 0 0 1-4.1-1.1L0 17.5 1.3 13a8.3 8.3 0 0 1 0-8.6 8.92 8.92 0 0 1 3.2-3.2A8.48 8.48 0 0 1 8.8 0a7.84 7.84 0 0 1 3.3.7 10.65 10.65 0 0 1 2.8 1.9zM8.7 15.9a6.53 6.53 0 0 0 3.6-1 8.39 8.39 0 0 0 2.7-2.6 6.53 6.53 0 0 0 1-3.6 6.6 6.6 0 0 0-.6-2.7 7.76 7.76 0 0 0-1.6-2.4A8.68 8.68 0 0 0 11.5 2a6.36 6.36 0 0 0-2.8-.5 6.53 6.53 0 0 0-3.6 1 8.07 8.07 0 0 0-2.6 2.6 6.53 6.53 0 0 0-1 3.6 7 7 0 0 0 1.1 3.8l.2.3-.7 2.7 2.7-.7.3.2a7.4 7.4 0 0 0 3.6.9zm4-5.4l.1.1c.2.1.3.1.3.2v.4a1.42 1.42 0 0 1-.2.6 3.19 3.19 0 0 1-.6.7 2 2 0 0 1-.8.4 2.05 2.05 0 0 1-1.1 0c-.4-.1-.9-.3-1.6-.5a10.72 10.72 0 0 1-3.5-3.3L5.2 9a3.7 3.7 0 0 1-.9-2.2A2.87 2.87 0 0 1 5 5a.86.86 0 0 1 .6-.3h.5a.37.37 0 0 1 .3.1.77.77 0 0 1 .2.3l.7 1.6c.1.2.1.3 0 .4a1.79 1.79 0 0 1-.5.7l-.2.2a.31.31 0 0 0 .1.2A5.34 5.34 0 0 0 8 9.8a15.77 15.77 0 0 0 1.6 1 .45.45 0 0 0 .5 0c.3-.4.6-.7.7-.9s.1-.2.2-.2h.3c.1.2.6.4 1.4.8z"/></svg><svg viewBox="0 0 17.46 14.83" id="ic_messenger2" xmlns="http://www.w3.org/2000/svg"><path d="M14.72 13.97a1.23 1.23 0 0 1-.5.8 1 1 0 0 1-.9-.1l-4-3-2 1.9-.3.3a.75.75 0 0 1-.5.1l.3-4.1 7.5-6.8c.1-.1.1-.1.1-.2s-.1-.1-.2-.1-.2.1-.4.1l-9.2 5.8-4-1.3c-.4-.1-.7-.3-.6-.6s.3-.5.8-.7l15.5-6c.4-.1.7-.1.9.1a1.38 1.38 0 0 1 .2 1.2z"/></svg><svg viewBox="0 0 27 32" id="ic_payment_method1" xmlns="http://www.w3.org/2000/svg"><path fill-rule="evenodd" d="M18.974 31.982c-4.174 0-7.636-3.379-7.636-7.454 0-4.076 3.462-7.455 7.636-7.455 4.175 0 7.636 3.28 7.636 7.455 0 4.075-3.461 7.454-7.636 7.454zm4.175-7.554l-2.953 2.187V20.85H18.16v5.765l-2.953-2.187-.611.795 3.564 2.585.509.397h.916l.509-.397 3.665-2.585-.61-.795zm-12.626.1c0 1.59.407 2.981 1.222 4.274H5.738c-2.851 0-5.091-2.187-5.091-4.97V5.94c0-2.783 2.24-4.97 5.091-4.97h11.2c2.851 0 5.091 2.187 5.091 4.97v10.834c-.917-.397-1.935-.596-3.055-.596-4.684 0-8.451 3.777-8.451 8.35zm7.433-18.389H4.72v1.988h13.236V6.139zm0 2.982H4.72v1.988h13.236V9.121zm0 2.982H4.72v1.988h13.236v-1.988z"/></svg><svg viewBox="138 -143.1 386.1 386.1" id="ic_payment_method2" xmlns="http://www.w3.org/2000/svg"><path d="M446.9-88.1H160.4c-12.5 0-22.4 10.5-22.4 22.9V111c.1 12.2 10.2 22 22.4 21.9H172V-10.8c0-23.5 19.2-42.3 42.7-42.3h254.4v-12.1c0-12.4-9.7-22.9-22.2-22.9zM478.1 118.9c-6.8-5.7-16.9-4.8-22.6 2-.5.6-1 1.1-1.5 1.5-4.3 3.5-10.6 2.8-14.1-1.5-3-3.7-7.6-5.9-12.4-5.9-9 0-16.2 7.2-16.1 16.2 0 8.9 7.3 16.1 16.2 16.1 4.8.1 9.4-2.1 12.4-5.8 1.9-2.3 4.7-3.6 7.7-3.6 2.9-.1 5.8 1.2 7.7 3.5.7.8 1.3 1.5 2.1 2.1 6.8 5.7 16.9 4.8 22.6-2 5.7-6.7 4.8-16.9-2-22.6z"/><path d="M501.3-33.1H214.7c-12.5-.1-22.6 9.9-22.7 22.3V3.9h332.1v-14.7c0-12.5-10.3-22.3-22.8-22.3zM192 23.9h332v26H192zM192 69.9V165c0 12.6 10.1 22.8 22.7 22.9h286.5c12.6-.1 22.7-10.3 22.8-22.9V69.9H192zm305.9 81.5c-11.2 16.5-33.7 20.9-50.2 9.7-6 4.1-13 6.2-20.2 6.2-20 0-36.1-16.3-36.1-36.2 0-19.9 16.1-36.1 36.1-36.1 7.2 0 14.2 2.1 20.2 6.2 12.3-8.3 28.3-8.3 40.5 0 16.5 11.1 20.9 33.7 9.7 50.2z"/></svg><svg viewBox="0 0 22 28" id="ic_payment_method3" xmlns="http://www.w3.org/2000/svg"><path fill-rule="evenodd" d="M19.583 26.267l-2.343-.004a.873.873 0 0 0 .149-.465v-6.164a.903.903 0 0 0-.905-.899H4.666a.903.903 0 0 0-.905.899v6.164c0 .164.056.309.133.441l-2.302-.004c-.669-.002-1.715-1.412-1.51-2.047l3.097-9.571c.205-.635.36-.952 1.023-1.056l3.513-.549C5.934 11.858 4.73 9.778 4.73 7.376c0-3.642 2.741-6.594 6.122-6.594 3.38 0 6.121 2.952 6.121 6.594 0 2.437-1.241 4.541-3.065 5.683l3.016.502c.661.11 1.207.423 1.415 1.056l3.29 10.02c.207.633-1.377 1.631-2.046 1.63zM15.546 8.352c.04-.267-.678-1.024-1.04-.996-.853.065-1.796.496-3.657.496-1.53 0-2.72-.265-3.56-.398-.616-.097-1.262.632-1.223.899.365 2.466 2.348 4.351 4.74 4.351 2.392 0 4.376-1.885 4.74-4.352zM4.629 19.634c0-.019.018-.037.037-.037l11.856.037-.038 6.202-11.855-.038v-6.164zm14.2 8.118H2.784v-.838h16.045v.838z"/></svg><svg viewBox="0 0 492.09 512.18" id="ic_pluses1" xmlns="http://www.w3.org/2000/svg"><path d="M465.44 264.59a15.44 15.44 0 0 1 0-17l18.7-28.7a49 49 0 0 0-23.6-72.5l-32-12.3a15.51 15.51 0 0 1-10-13.8l-1.8-34.2a49 49 0 0 0-61.7-44.8l-33.1 8.9a15.7 15.7 0 0 1-16.2-5.3l-21.6-26.7a49 49 0 0 0-76.2 0l-21.6 26.7a15.64 15.64 0 0 1-16.2 5.3l-33.1-8.9a49 49 0 0 0-61.7 44.8l-1.8 34.2a15.51 15.51 0 0 1-10 13.8l-32 12.3a49 49 0 0 0-23.6 72.5l18.7 28.7a15.44 15.44 0 0 1 0 17l-18.7 28.7a49 49 0 0 0 23.6 72.5l32 12.3a15.51 15.51 0 0 1 10 13.8l1.8 34.2a49 49 0 0 0 61.7 44.8l33.1-8.9a15.64 15.64 0 0 1 16.2 5.3l21.6 26.7a49 49 0 0 0 76.2 0l21.6-26.7a15.83 15.83 0 0 1 16.2-5.3l33.1 8.9a49 49 0 0 0 61.7-44.8l1.8-34.2a15.62 15.62 0 0 1 10-13.8l32-12.3a49 49 0 0 0 23.6-72.5zm-16.8 70l-32 12.3a49 49 0 0 0-31.4 43.2l-1.8 34.2a15.53 15.53 0 0 1-19.6 14.2l-33.1-8.9a49.1 49.1 0 0 0-50.8 16.5l-21.6 26.7a15.56 15.56 0 0 1-24.2 0l-21.6-26.7a49 49 0 0 0-38.1-18.2 46.23 46.23 0 0 0-12.7 1.7l-33.1 8.9a15.53 15.53 0 0 1-19.6-14.2l-1.8-34.2a49 49 0 0 0-31.4-43.2l-32-12.3a15.61 15.61 0 0 1-7.5-23.1l18.7-28.7a49 49 0 0 0 0-53.5l-18.7-28.7a15.63 15.63 0 0 1 7.5-23.1l32-12.3a49 49 0 0 0 31.4-43.2l1.8-34.2a15.53 15.53 0 0 1 19.6-14.2l33.1 8.9a49.1 49.1 0 0 0 50.8-16.5l21.6-26.7a15.56 15.56 0 0 1 24.2 0l21.6 26.7a49 49 0 0 0 50.8 16.5l33.1-8.9a15.53 15.53 0 0 1 19.6 14.2l1.8 34.3a49 49 0 0 0 31.4 43.2l32 12.3a15.61 15.61 0 0 1 7.5 23.1l-18.7 28.7a49 49 0 0 0 0 53.5l18.7 28.7a15.51 15.51 0 0 1-7.5 23z"/><path d="M329.74 170.89a16.72 16.72 0 0 0-23.6 0l-156 156a16.72 16.72 0 0 0 0 23.6 16.5 16.5 0 0 0 11.8 4.9 16.33 16.33 0 0 0 11.8-4.9l156-156a16.72 16.72 0 0 0 0-23.6zM178.64 165.99a33.4 33.4 0 1 0 33.4 33.4 33.46 33.46 0 0 0-33.4-33.4zM301.24 288.59a33.4 33.4 0 1 0 33.4 33.4 33.46 33.46 0 0 0-33.4-33.4z"/></svg><svg viewBox="0 0 438.47 512.1" id="ic_pluses2" xmlns="http://www.w3.org/2000/svg"><path d="M429.77 49.4a37.22 37.22 0 0 0-28.3-13.1h-35.8V25.1A25.18 25.18 0 0 0 340.57 0H97.97a25.18 25.18 0 0 0-25.1 25.1v11.2h-35.8a37.22 37.22 0 0 0-28.3 13.1A36.6 36.6 0 0 0 .47 79a191.83 191.83 0 0 0 97.4 136.9 259.53 259.53 0 0 0 16 32.1c19 32 42.6 54.1 68.6 64.8a54.18 54.18 0 0 1-41.8 57.9h-.2a11.81 11.81 0 0 0-9.1 11.5v54.4h-22a35.51 35.51 0 0 0-35.5 35.5v28.1a11.91 11.91 0 0 0 11.8 11.9h268a11.93 11.93 0 0 0 11.9-11.9v-28.1a35.51 35.51 0 0 0-35.5-35.5h-22v-54.4a11.81 11.81 0 0 0-9.1-11.5h-.1a54.13 54.13 0 0 1-41.8-58.4c25.5-10.9 48.8-32.8 67.5-64.3a259.53 259.53 0 0 0 16-32.1A191.83 191.83 0 0 0 437.97 79a36.54 36.54 0 0 0-8.2-29.6zM23.97 75.2a13 13 0 0 1 2.9-10.5 13.47 13.47 0 0 1 10.2-4.7h35.8v21.8a375.43 375.43 0 0 0 12.6 97.6 167.78 167.78 0 0 1-61.5-104.2zm306.2 385a11.93 11.93 0 0 1 11.9 11.9v16.2H97.67v-16.2a11.93 11.93 0 0 1 11.9-11.9zm-45.7-66.2v42.5h-129.2V394zm-98.2-23.7a78.15 78.15 0 0 0 20.2-51.2 90.39 90.39 0 0 0 12.7.9 107 107 0 0 0 13.9-1 78.6 78.6 0 0 0 20.3 51.3zm155.7-288.5c0 58.4-13.4 113.1-37.7 154-23.2 39-53.4 60.5-85 60.5s-61.8-21.5-85-60.5c-24.3-41-37.7-95.7-37.7-154V25.1a1.37 1.37 0 0 1 1.4-1.4h242.6a1.37 1.37 0 0 1 1.4 1.4zm72.6-6.6a167.92 167.92 0 0 1-61.6 104.2c8.3-30.3 12.6-63.4 12.6-97.6V60h35.8a13.32 13.32 0 0 1 10.2 4.7 12.35 12.35 0 0 1 3 10.5z"/><path d="M234.07 218.5h-26.1v-98.2a90.58 90.58 0 0 1-33.7 19.8v-23.7c6.8-2.2 14.2-6.4 22.2-12.7s13.5-13.5 16.4-21.8h21.2z"/></svg><svg viewBox="0 0 511.34 513.3" id="ic_search" xmlns="http://www.w3.org/2000/svg"><path d="M494 404.5L409.5 320c15.4-30.7 25.7-66.5 25.7-102.4a217.6 217.6 0 1 0-217.6 217.6c35.8 0 71.7-10.2 102.4-25.6l84.5 84.5c25.6 25.6 64 25.6 89.6 0a66.69 66.69 0 0 0-.1-89.6zM217.6 384A166.4 166.4 0 1 1 384 217.6 166 166 0 0 1 217.6 384z"/></svg><svg viewBox="0 0 17.04 18" id="ic_settings" xmlns="http://www.w3.org/2000/svg"><path d="M14.94 10a3.4 3.4 0 0 0 .1-1 3.4 3.4 0 0 0-.1-1l1.7-1.3a1.09 1.09 0 0 0 .3-1.3l-1.1-1.8a1.14 1.14 0 0 0-1.3-.5l-2 .8a5.85 5.85 0 0 0-1.7-1l-.3-2.1a.88.88 0 0 0-.9-.8h-2.2a1.06 1.06 0 0 0-1 .9l-.3 2a9.5 9.5 0 0 0-1.7 1l-2-.8a.93.93 0 0 0-1.2.4L.14 5.4a1 1 0 0 0 .3 1.3L2.14 8a3.4 3.4 0 0 0-.1 1 3.4 3.4 0 0 0 .1 1l-1.7 1.3a1.09 1.09 0 0 0-.3 1.3l1.1 1.8a1.14 1.14 0 0 0 1.3.5l2-.8a5.85 5.85 0 0 0 1.7 1l.3 2.1a.88.88 0 0 0 .9.8h2.1a1.06 1.06 0 0 0 1-.9l.3-2.1a5.85 5.85 0 0 0 1.7-1l2 .8a.93.93 0 0 0 1.2-.4l1.1-1.8a1 1 0 0 0-.3-1.3zm-6.4 2.5a3.5 3.5 0 1 1 3.5-3.5 3.54 3.54 0 0 1-3.5 3.5z"/></svg><svg viewBox="0 0 37 33" id="ic_success" xmlns="http://www.w3.org/2000/svg"><path fill-rule="evenodd" d="M35.67 3.421l-16.499 16.5a1.13 1.13 0 0 1-1.592-.001l-6.749-6.75a1.125 1.125 0 1 1 1.591-1.592l5.955 5.955L34.079 1.83a1.124 1.124 0 1 1 1.591 1.591zM24.184 4.503a14.185 14.185 0 0 0-7.685-2.253C8.643 2.25 2.25 8.643 2.25 16.5s6.393 14.25 14.249 14.25c7.857 0 14.25-6.393 14.25-14.25 0-.47-.023-.935-.066-1.392a1.125 1.125 0 1 1 2.239-.218c.051.53.077 1.067.077 1.61 0 9.098-7.402 16.5-16.5 16.5C7.402 33 0 25.598 0 16.5 0 7.402 7.402 0 16.499 0c3.164 0 6.242.901 8.901 2.608a1.125 1.125 0 1 1-1.216 1.895z"/></svg><svg viewBox="0 0 31 31" id="ic_theme" xmlns="http://www.w3.org/2000/svg"><path d="M15.5 0A15.5 15.5 0 1 0 31 15.5 15.45 15.45 0 0 0 15.5 0zm7.2 21.8a9.13 9.13 0 0 1-6.7 2.8A9.3 9.3 0 0 1 16 6a9.14 9.14 0 0 1 7.4 3.7c-8.9-2.9-15 11.3-.7 12.1z" fill-rule="evenodd"/></svg><svg viewBox="0 0 53.9 55" id="ic_view360" xmlns="http://www.w3.org/2000/svg"><path d="M48.8 2v8.1A27.48 27.48 0 1 0 50.9 42h-7.5A21.51 21.51 0 1 1 27.5 6a21.21 21.21 0 0 1 16.7 8h-7.5v5h17V2z" fill-rule="evenodd"/><path d="M26.3 24.2c2.2 0 3.7 1.2 3.7 3.1a2.09 2.09 0 0 1-1.6 2.2 2.59 2.59 0 0 1 2 2.6c0 2.1-1.7 3.6-4.2 3.6s-4.1-1.5-4.1-3.9v-.2h2.2c0 1.4.7 2.1 1.9 2.1a1.74 1.74 0 0 0 1.9-1.7c0-1.2-1-1.7-2-1.7h-.6v-1.6h.4c1.3 0 2-.5 2-1.4a1.43 1.43 0 0 0-1.6-1.4c-1.1 0-1.7.7-1.7 1.9h-2.2a3.55 3.55 0 0 1 3.9-3.6zM37 27.2a1.5 1.5 0 0 0-1.5-1.3c-1.2 0-2 1.1-2.1 3.3a3.13 3.13 0 0 1 2.5-1.3 3.47 3.47 0 0 1 3.5 3.7 3.89 3.89 0 0 1-4 4c-2.7 0-4.2-2.1-4.2-5.6 0-3.7 1.6-5.9 4.4-5.9a3.29 3.29 0 0 1 3.6 3H37zm-3.4 4.5a1.88 1.88 0 0 0 1.8 2.1 1.94 1.94 0 0 0 1.8-2.1 1.82 1.82 0 1 0-3.6 0zM48.2 29.9c0 3.6-1.5 5.7-4.1 5.7S40 33.5 40 29.9c0-2.6.9-5.7 4.1-5.7s4.1 3.1 4.1 5.7zm-5.9.1c0 2.5.6 3.8 1.9 3.8s1.9-1.3 1.9-3.9-.6-3.9-1.9-3.9c-1.9 0-1.9 2.7-1.9 4zM53.9 27.7a2.44 2.44 0 0 1-2.5 2.6 2.39 2.39 0 0 1-2.5-2.6 2.5 2.5 0 1 1 5 0zm-3.6 0c0 1 .4 1.6 1.2 1.6s1.2-.6 1.2-1.6-.4-1.5-1.2-1.5-1.2.6-1.2 1.5z"/></svg><svg viewBox="0 0 25 25" id="ic_visited" xmlns="http://www.w3.org/2000/svg"><path d="M12.5 0A12.5 12.5 0 1 0 25 12.5 12.5 12.5 0 0 0 12.5 0zm.9 14h-7v-2h5V4h2z" fill-rule="evenodd"/></svg><svg viewBox="0 0 34 30" id="ic_warning" xmlns="http://www.w3.org/2000/svg"><path fill-rule="evenodd" d="M17.003 19.977a1.337 1.337 0 0 1-1.328-1.345V8.744c0-.743.595-1.345 1.328-1.345.734 0 1.328.602 1.328 1.345v9.888c0 .743-.594 1.345-1.328 1.345zm.001 4.709a1.337 1.337 0 0 1-1.329-1.345c0-.743.594-1.346 1.328-1.346h.001c.733 0 1.328.603 1.328 1.346 0 .743-.595 1.345-1.328 1.345zm16.039 2.872C32.005 29.11 30.345 30 28.49 30H5.516c-2.024 0-3.821-1.07-4.807-2.861a5.577 5.577 0 0 1 .124-5.653L12.32 2.647A5.452 5.452 0 0 1 17.003 0c1.922 0 3.673.989 4.683 2.647l8.496 13.933a1.355 1.355 0 0 1-.432 1.851 1.318 1.318 0 0 1-1.828-.437L19.427 4.061a2.824 2.824 0 0 0-2.424-1.371c-.995 0-1.901.513-2.424 1.371L3.093 22.9a2.888 2.888 0 0 0-.065 2.928 2.809 2.809 0 0 0 2.488 1.481H28.49c.96 0 1.818-.459 2.354-1.26a2.906 2.906 0 0 0 .303-2.68 1.352 1.352 0 0 1 .741-1.749 1.323 1.323 0 0 1 1.726.751 5.626 5.626 0 0 1-.571 5.187z"/></svg></svg>